<?xml version="1.0" encoding="UTF-8" standalone="no"?>
<svg
   xmlns:dc="http://purl.org/dc/elements/1.1/"
   xmlns:cc="http://creativecommons.org/ns#"
   xmlns:rdf="http://www.w3.org/1999/02/22-rdf-syntax-ns#"
   xmlns:svg="http://www.w3.org/2000/svg"
   xmlns="http://www.w3.org/2000/svg"
   id="svg856"
   version="1.1"
   viewBox="0 0 53.693748 89.51046"
   height="89.51046mm"
   width="53.693748mm">
  <defs
     id="defs850" />
  <metadata
     id="metadata853">
    <rdf:RDF>
      <cc:Work
         rdf:about="">
        <dc:format>image/svg+xml</dc:format>
        <dc:type
           rdf:resource="http://purl.org/dc/dcmitype/StillImage" />
        <dc:title></dc:title>
      </cc:Work>
    </rdf:RDF>
  </metadata>
  <g
     transform="translate(-97.129304,-97.274593)"
     id="layer1">
    <path
       id="path9"
       d="m 137.4087,97.475071 c -0.23283,0.0511 -0.63764,0.0963 -0.89958,0.10081 -1.06151,0.0177 -2.35003,0.38073 -2.70113,0.7612 -0.34661,0.37598 -0.98161,0.7247 -1.31921,0.7247 -0.11192,0 -0.47599,0.26193 -0.8091,0.58208 -0.33338,0.32015 -0.65008,0.582079 -0.70432,0.582079 -0.14155,0 -0.60061,0.45403 -0.60272,0.59611 -10e-4,0.0662 -0.0971,0.14499 -0.21352,0.17542 -0.11642,0.0304 -0.21167,0.13123 -0.21167,0.2241 0,0.0926 -0.0455,0.16854 -0.10133,0.16854 -0.14314,0 -0.6395,0.87551 -0.6395,1.12792 0,0.19553 -0.43233,0.67125 -0.60987,0.67125 -0.12488,0 -0.5543,1.00674 -0.5543,1.29937 0,0.43656 -0.34369,1.38456 -0.58605,1.61686 -0.12488,0.1196 -0.2704,0.28628 -0.32332,0.37042 -0.16907,0.26908 -0.78661,0.52335 -1.27132,0.52335 -0.62627,0 -1.55655,0.33761 -1.99734,0.72469 -0.19632,0.17224 -0.51541,0.34449 -0.70882,0.38259 -1.32609,0.26141 -1.79361,0.43444 -2.21642,0.821 -0.24077,0.21987 -0.50032,0.40005 -0.57679,0.40005 -0.0765,0 -0.16563,0.0429 -0.19791,0.0953 -0.0323,0.0524 -0.29157,0.15108 -0.57599,0.21934 -0.46832,0.11218 -1.17687,0.62362 -1.17687,0.84931 0,0.0442 -0.15478,0.13997 -0.34396,0.21299 -1.09088,0.42016 -1.77271,0.86969 -1.77271,1.16867 0,0.055 -0.0656,0.10027 -0.14578,0.10027 -0.0802,0 -0.20505,0.0714 -0.27755,0.15875 -0.0725,0.0873 -0.23019,0.15875 -0.35084,0.15875 -0.20505,0 -1.02499,0.76068 -1.02499,0.95092 0,0.0476 -0.13706,0.1344 -0.30454,0.19288 -0.43947,0.15319 -0.73607,0.43947 -0.8673,0.83714 -0.063,0.19103 -0.15955,0.3474 -0.21432,0.3474 -0.27569,0 -0.91572,0.5461 -1.10384,0.94138 -0.12567,0.26459 -0.30321,0.46408 -0.44582,0.50113 -0.30692,0.0796 -0.87418,0.72654 -0.87418,0.99695 0,0.12012 -0.13759,0.29315 -0.32227,0.40534 -0.33443,0.20346 -0.8419,0.81518 -0.8419,1.0152 0,0.35375 -0.38973,0.45191 -1.97115,0.49689 -1.63565,0.0466 -2.28097,0.21273 -2.78553,0.71729 -0.0931,0.0931 -0.47784,0.25558 -0.85487,0.36115 -0.86968,0.24342 -1.55204,0.58209 -1.80022,0.89324 -0.20162,0.2532 -0.89721,0.76226 -1.04114,0.76226 -0.11245,0 -0.54266,0.46567 -0.54425,0.58896 -0.002,0.13547 -0.812267,0.99854 -0.937944,0.99854 -0.155575,0 -0.578644,0.82576 -0.8001,1.56104 -0.109537,0.3638 -0.254529,0.66146 -0.321998,0.66146 -0.2032,0 -0.566208,0.4916 -0.679715,0.92049 -0.401637,1.51791 -0.669131,5.012 -0.436827,5.70468 0.05662,0.1688 0.150284,0.78316 0.208492,1.36525 0.12356,1.24169 0.340519,1.94468 0.73025,2.36722 0.341313,0.37016 0.651669,0.89218 0.651669,1.09617 0,0.20982 0.724958,1.03452 0.909637,1.03452 0.08361,0 0.231506,0.16669 0.328876,0.37042 0.0971,0.20373 0.21537,0.37042 0.26273,0.37042 0.0474,0 0.0862,0.0656 0.0862,0.14578 0,0.0804 0.15478,0.20955 0.34396,0.28734 0.39,0.16007 0.65167,0.3855 0.74269,0.64056 0.0876,0.24474 0.69294,0.67601 1.15755,0.82497 0.21563,0.0691 0.50138,0.245 0.635,0.39105 0.54001,0.59029 1.26021,0.76518 4.55559,1.10649 1.07236,0.11086 1.24355,0.15451 1.24355,0.3167 0,0.10319 0.0714,0.2593 0.15875,0.34661 0.0873,0.0873 0.15875,0.20161 0.15875,0.25426 0,0.0524 0.21034,0.24633 0.46751,0.43101 0.25718,0.18468 0.52626,0.46831 0.59796,0.63024 0.0714,0.16192 0.2884,0.41195 0.48207,0.55536 0.19341,0.1434 0.35296,0.31723 0.35454,0.38602 0.002,0.0688 0.0863,0.15161 0.18812,0.18389 0.10187,0.0325 0.24951,0.20399 0.32809,0.38153 0.27225,0.61463 0.92895,1.31577 1.53484,1.63777 0.32835,0.17462 0.59717,0.37703 0.59743,0.44979 0,0.0728 0.0476,0.13229 0.10531,0.13229 0.0577,0 0.23336,0.14394 0.38999,0.31988 0.15664,0.17595 0.49477,0.42466 0.75116,0.55272 0.25611,0.12779 0.53101,0.35851 0.61065,0.5125 0.0796,0.15372 0.32544,0.36089 0.5461,0.45984 0.84297,0.37809 0.93954,0.43736 1.24831,0.76306 0.33126,0.34925 0.88529,0.6604 1.5621,0.87736 0.21907,0.0701 0.60087,0.32676 0.84905,0.56991 0.44317,0.43498 0.93583,0.63236 1.96003,0.78529 0.21511,0.0323 0.4146,0.1516 0.51885,0.31062 0.25982,0.39634 0.88953,0.6604 1.964,0.82391 0.53763,0.0818 1.12051,0.2278 1.29514,0.32464 0.94403,0.52335 1.86637,1.13136 2.02088,1.33244 0.12515,0.16272 0.57362,2.12434 0.57256,2.50508 -5.3e-4,0.26829 0.17119,0.567 0.76465,1.32874 0.21934,0.28178 0.40058,0.59134 0.40243,0.68791 0.002,0.0966 0.0733,0.26803 0.15875,0.381 0.0855,0.11324 0.15531,0.28628 0.15531,0.38471 0,0.0987 0.12409,0.26061 0.27569,0.3601 0.40482,0.26511 0.88848,0.74797 0.88848,0.88688 0,0.15769 0.38814,0.54425 0.54636,0.54425 0.65934,0 2.09947,1.46314 2.09947,2.13307 0,0.21484 -0.45667,0.81147 -0.70908,0.92657 -0.13018,0.0593 -0.37465,0.29818 -0.54319,0.53128 -0.16881,0.23283 -0.54769,0.61357 -0.84164,0.84614 -0.29422,0.23257 -0.56568,0.51991 -0.60352,0.6387 -0.0376,0.1188 -0.13679,0.2159 -0.22013,0.2159 -0.0833,0 -0.15161,0.0421 -0.15161,0.0937 0,0.0516 -0.15478,0.17066 -0.34396,0.26432 -0.44344,0.21961 -0.71437,0.4326 -0.71437,0.56118 0,0.15558 -0.46884,0.56251 -0.64823,0.56251 -0.0873,0 -0.26088,0.0952 -0.38576,0.21166 -0.12489,0.11642 -0.26855,0.21167 -0.31909,0.21167 -0.0503,0 -0.20717,0.12436 -0.34819,0.27623 -0.25718,0.27675 -1.27185,0.79428 -1.81769,0.9271 -0.16007,0.0389 -0.29104,0.11747 -0.29104,0.17462 0,0.0569 -0.0553,0.10372 -0.12277,0.10372 -0.0677,0 -0.24632,0.13626 -0.39687,0.30295 -0.21061,0.23283 -0.51938,0.37068 -1.33244,0.59478 -0.88477,0.24394 -1.72588,0.63526 -1.95792,0.91069 -0.26935,0.31989 -1.03161,0.37862 -1.41976,0.10981 -0.48842,-0.33814 -1.54357,-2.15212 -1.54357,-2.65351 0,-0.26194 -0.21696,-0.74639 -0.33444,-0.74639 -0.049,0 -0.0889,-0.073 -0.0889,-0.16219 0,-0.0889 -0.0833,-0.19394 -0.18521,-0.23283 -0.20584,-0.0789 -0.54663,-0.45059 -0.55218,-0.60246 -0.005,-0.13361 -2.00925,-2.07169 -2.1426,-2.07169 -0.0585,0 -0.36724,-0.23812 -0.68553,-0.52916 -0.31856,-0.29104 -0.6694,-0.52917 -0.77999,-0.52917 -0.28496,0 -1.78065,-0.50879 -2.1852,-0.74321 -0.98875,-0.57336 -4.68074,-0.60008 -5.85417,-0.0423 -0.81253,0.38629 -1.97511,0.78819 -2.27489,0.7866 -0.11721,-5.3e-4 -0.4736,0.23707 -0.79189,0.52811 -0.3183,0.29104 -0.62998,0.52917 -0.69242,0.52917 -0.17145,0 -1.86293,1.68169 -2.20901,2.19604 -0.16615,0.24738 -0.367236,0.44979 -0.446611,0.44979 -0.07937,0 -0.144463,0.0442 -0.144463,0.0982 0,0.0542 -0.06032,0.1614 -0.134408,0.23813 -0.07382,0.077 -0.249767,0.54424 -0.39079,1.03822 -0.141023,0.49398 -0.396346,1.10516 -0.567267,1.35837 -0.915722,1.35678 -0.788193,6.35741 0.192088,7.53295 0.07276,0.0873 0.265906,0.55722 0.429419,1.04405 0.229393,0.68342 0.411162,1.01018 0.797192,1.43245 0.27516,0.3011 0.60272,0.74375 0.72787,0.98399 0.14075,0.27014 0.36406,0.50165 0.58578,0.60669 0.19685,0.0934 0.61146,0.39529 0.92128,0.67072 0.30983,0.27543 0.65802,0.55827 0.77364,0.62865 0.35957,0.21801 1.34171,0.66595 1.46024,0.66595 0.0619,0 0.21087,0.0881 0.33099,0.19553 1.23296,1.10358 7.52766,1.09617 8.65532,-0.0103 0.10371,-0.10186 0.23997,-0.18521 0.30268,-0.18521 0.27755,0 1.66635,-0.76464 2.00263,-1.10278 0.20373,-0.20452 0.40825,-0.37359 0.45429,-0.37544 0.046,-0.002 0.186,-0.0987 0.31089,-0.21511 0.12488,-0.11642 0.30612,-0.21167 0.40243,-0.21167 0.20082,0 0.52573,-0.322 0.52573,-0.52123 0,-0.16774 0.36777,-0.70167 0.77073,-1.11918 0.34052,-0.35243 0.81677,-1.22079 0.81677,-1.48855 0,-0.21881 0.30241,-0.88635 0.51435,-1.13533 0.17171,-0.20161 0.41883,-0.80089 0.51091,-1.23904 0.0683,-0.32359 0.74797,-0.9525 1.02975,-0.9525 0.24633,0 1.54332,-0.41804 1.72376,-0.55563 0.23522,-0.17938 0.92128,-0.5027 1.0668,-0.5027 0.43577,0 2.11958,-0.68078 2.27304,-0.9189 0.0937,-0.14552 1.16284,-0.66834 1.3679,-0.66913 0.20928,-5.3e-4 1.05251,-0.45006 1.38139,-0.73607 0.15954,-0.13865 0.60457,-0.39079 0.98901,-0.56039 0.42095,-0.18547 0.87392,-0.48948 1.13876,-0.76438 0.24183,-0.25109 0.6141,-0.52864 0.82736,-0.61701 0.21325,-0.0884 0.58234,-0.35534 0.82021,-0.5932 0.23786,-0.23786 0.48021,-0.43259 0.53842,-0.43259 0.0582,0 0.10584,-0.0365 0.10584,-0.0812 0,-0.0445 0.26193,-0.2376 0.58208,-0.42916 0.32014,-0.19155 0.58208,-0.39872 0.58208,-0.46037 0,-0.14632 0.78793,-0.93424 0.93425,-0.93424 0.0616,0 0.26881,-0.26194 0.46037,-0.58209 0.19156,-0.32014 0.38471,-0.58208 0.42916,-0.58208 0.0447,0 0.0812,-0.0508 0.0812,-0.11298 0,-0.0622 0.16668,-0.27014 0.37041,-0.46223 0.20373,-0.19208 0.37042,-0.40322 0.37042,-0.4691 0,-0.0659 0.0484,-0.11986 0.10742,-0.11986 0.0593,0 0.18706,-0.16669 0.28443,-0.37041 0.0971,-0.20373 0.21537,-0.37042 0.26273,-0.37042 0.0474,0 0.0863,-0.0603 0.0863,-0.13388 0,-0.21167 0.7911,-0.49953 2.00395,-0.72946 0.61489,-0.11668 1.23719,-0.2749 1.38271,-0.35163 0.35164,-0.18547 1.86638,-0.69003 2.07169,-0.69003 0.27623,0 1.0377,-0.39106 1.42372,-0.73104 0.20215,-0.17807 0.41514,-0.32571 0.47334,-0.32809 0.0582,-0.002 0.2249,-0.0971 0.37042,-0.21087 0.14552,-0.11377 0.34581,-0.20796 0.44477,-0.20929 0.0992,-0.001 0.2659,-0.12223 0.37041,-0.26908 0.10478,-0.14658 0.27358,-0.36803 0.37545,-0.49239 0.10186,-0.12409 0.1852,-0.26617 0.1852,-0.31538 0,-0.0495 0.0714,-0.0897 0.15875,-0.0897 0.0873,0 0.15875,-0.0445 0.15875,-0.0987 0,-0.0542 0.0833,-0.12727 0.18521,-0.16245 0.10187,-0.0349 0.28443,-0.28814 0.40587,-0.56277 0.5252,-1.18772 0.63024,-1.39621 0.7038,-1.39727 0.23944,-0.004 0.61065,-0.89217 0.81835,-1.95924 0.12488,-0.64029 0.27332,-1.30704 0.32994,-1.48166 0.20558,-0.63262 0.24738,-2.63711 0.0688,-3.30068 -0.0913,-0.3384 -0.19685,-0.90091 -0.23469,-1.25016 -0.11721,-1.08003 -0.68871,-2.58947 -0.98213,-2.59424 -0.0429,-5.3e-4 -0.16748,-0.20293 -0.27676,-0.44979 -0.10927,-0.24659 -0.25214,-0.56515 -0.3175,-0.70749 -0.0653,-0.14262 -0.3212,-0.46832 -0.56858,-0.72417 -0.24739,-0.25559 -0.4498,-0.49212 -0.4498,-0.5252 0,-0.0833 -0.65537,-0.66119 -0.75009,-0.66119 -0.0421,0 -0.32385,-0.23813 -0.62574,-0.52917 -0.30189,-0.29104 -0.61939,-0.52916 -0.70538,-0.52916 -0.17568,0 -0.97393,-0.44159 -1.47981,-0.81863 -0.51541,-0.38417 -2.24288,-0.7612 -3.51393,-0.76676 -0.80963,-0.004 -2.09418,-0.82788 -2.38893,-1.53326 -0.078,-0.18706 -0.38576,-0.58764 -0.68368,-0.89032 -0.29792,-0.30268 -0.5416,-0.5887 -0.5416,-0.63553 0,-0.13018 -0.43048,-0.57124 -0.87974,-0.90091 -0.22199,-0.16298 -0.44344,-0.39872 -0.49213,-0.52387 -0.0489,-0.12541 -0.24315,-0.34687 -0.43153,-0.49239 -0.18865,-0.14552 -0.59399,-0.51462 -0.90091,-0.82021 -0.30718,-0.30559 -0.62944,-0.55562 -0.71649,-0.55562 -0.0873,0 -0.43101,-0.26194 -0.76438,-0.58209 -0.33311,-0.32014 -0.64479,-0.58208 -0.69268,-0.58208 -0.086,0 -0.77126,-0.42651 -1.01785,-0.63341 -0.0704,-0.059 -0.15743,-0.10742 -0.19341,-0.10742 -0.036,0 -0.2085,-0.14288 -0.38312,-0.3175 -0.17463,-0.17463 -0.44477,-0.34449 -0.60034,-0.37756 -0.46646,-0.0987 -1.31657,-0.49557 -1.71635,-0.8009 -0.20664,-0.15769 -0.7067,-0.41381 -1.11125,-0.56912 -0.86784,-0.33258 -1.54094,-0.66648 -1.68857,-0.8374 -0.14949,-0.17331 -0.97155,-0.45323 -1.53459,-0.52282 -0.62679,-0.0773 -1.905,-0.48419 -1.905,-0.60616 0,-0.0529 -0.0609,-0.096 -0.1352,-0.096 -0.16007,0 -0.57706,-1.32001 -0.63923,-2.0238 -0.0238,-0.26882 -0.12118,-0.64532 -0.21643,-0.83635 -0.0952,-0.19103 -0.1733,-0.41142 -0.1733,-0.48974 0,-0.0786 -0.0497,-0.14261 -0.1106,-0.14261 -0.15346,0 -0.62786,-1.04934 -0.62918,-1.39065 -0.002,-0.60034 -0.65114,-1.57268 -1.0496,-1.57268 -0.0635,0 -0.11562,-0.0738 -0.11562,-0.16431 0,-0.33681 -0.46276,-0.95885 -0.8554,-1.14961 -0.25374,-0.12356 -0.44821,-0.31565 -0.53155,-0.5252 -0.16563,-0.41646 -0.4363,-0.68342 -0.83238,-0.82153 -0.28046,-0.0976 -0.74401,-0.68845 -0.74401,-0.94827 0,-0.0572 -0.095,-0.20611 -0.21113,-0.33073 l -0.21088,-0.22648 0.39608,-0.40931 c 0.85381,-0.88186 1.37716,-1.38563 2.94746,-2.83845 0.1225,-0.11324 0.2667,-0.20611 0.32015,-0.20611 0.0534,0 0.29686,-0.21193 0.54081,-0.47123 0.27993,-0.29765 0.59425,-0.5117 0.85381,-0.58155 0.44794,-0.12065 0.76808,-0.35798 0.95197,-0.70485 0.0728,-0.13732 0.31326,-0.27623 0.62521,-0.36089 0.76306,-0.20717 1.69915,-0.70591 1.77535,-0.94589 0.0434,-0.13679 0.2241,-0.25294 0.51065,-0.32782 1.62904,-0.42677 2.04099,-0.58896 2.37172,-0.93371 0.12806,-0.13309 0.41355,-0.21802 0.88953,-0.26485 l 0.70115,-0.0691 0.17198,0.68474 c 0.0945,0.37677 0.17198,0.82497 0.17198,0.99642 0,0.29607 0.63976,1.40044 0.85725,1.47982 0.0537,0.0196 0.25029,0.35295 0.43682,0.74083 0.32888,0.68448 0.44847,0.83026 1.06072,1.29381 0.16007,0.12118 0.29104,0.29078 0.29104,0.37651 0,0.20055 0.52784,0.66754 0.75962,0.67177 0.0979,0.002 0.24924,0.0749 0.33655,0.16219 0.0873,0.0873 0.20082,0.15875 0.25215,0.15875 0.0516,0 0.19843,0.14182 0.32649,0.31512 0.25929,0.35057 1.21603,0.84905 1.62984,0.84905 0.33946,0 1.02314,0.2794 1.2991,0.53075 0.99563,0.907 6.17538,0.90356 7.19667,-0.005 0.27331,-0.24315 0.96176,-0.52599 1.27979,-0.52599 0.42068,0 1.3454,-0.49583 1.76212,-0.94483 0.21775,-0.23468 0.52732,-0.45772 0.68792,-0.49582 0.37782,-0.09 0.61859,-0.30507 0.89826,-0.80275 0.12462,-0.22146 0.27702,-0.40402 0.33919,-0.40587 0.29237,-0.008 0.75539,-0.59664 0.99775,-1.26656 0.0526,-0.14552 0.31935,-0.53578 0.5924,-0.86704 0.50377,-0.61145 0.62627,-0.96044 0.8935,-2.54688 0.0466,-0.27702 0.15743,-0.58658 0.24659,-0.68792 0.43868,-0.50032 0.50456,-0.82021 0.50456,-2.44528 0,-1.55416 -0.23548,-2.76622 -0.53737,-2.76622 -0.0466,0 -0.11271,-0.22621 -0.14711,-0.5027 -0.0341,-0.27645 -0.12752,-0.7408 -0.20743,-1.03184 -0.0799,-0.29104 -0.17304,-0.65326 -0.2069,-0.80513 -0.0341,-0.15187 -0.27332,-0.48101 -0.53155,-0.73131 -0.31115,-0.30136 -0.50668,-0.60219 -0.57917,-0.89032 -0.0603,-0.23945 -0.25453,-0.59769 -0.4318,-0.79613 -0.17701,-0.19844 -0.322,-0.39978 -0.322,-0.44741 0,-0.0476 -0.0714,-0.0868 -0.15875,-0.0868 -0.0873,0 -0.15875,-0.0407 -0.15875,-0.0905 0,-0.12779 -0.49848,-0.65035 -0.62045,-0.65035 -0.0558,0 -0.36777,-0.255849 -0.69321,-0.568589 -0.43735,-0.42015 -0.6985,-0.58578 -1.00145,-0.6342 -0.30003,-0.0479 -0.53631,-0.19579 -0.88265,-0.55192 -0.41248,-0.42439 -0.56647,-0.50642 -1.20411,-0.64162 -1.54385,-0.32755 -4.78605,-0.53287 -5.59938,-0.35454 m 3.59833,0.26247 c 0.52388,0.086 1.12501,0.15716 1.33588,0.15822 0.45456,0.002 1.29937,0.35375 1.49146,0.62071 0.0749,0.10372 0.20743,0.22119 0.29475,0.26062 0.0873,0.0394 0.23018,0.11482 0.3175,0.16748 0.0873,0.0526 0.36618,0.1815 0.61965,0.28628 0.25347,0.10477 0.63235,0.37147 0.8419,0.59293 0.20955,0.221189 0.43762,0.402159 0.50695,0.402159 0.0691,0 0.15292,0.0714 0.18653,0.15875 0.0333,0.0873 0.12409,0.15875 0.20161,0.15875 0.0775,0 0.25744,0.18918 0.40031,0.42043 0.14261,0.23124 0.30004,0.42174 0.34978,0.42333 0.15082,0.005 0.53155,0.54398 0.75909,1.07527 0.11827,0.27569 0.35772,0.65907 0.53234,0.85195 0.52282,0.57785 1.10517,2.26801 1.10517,3.20728 0,0.12171 0.0952,0.40799 0.21167,0.63633 0.26828,0.52625 0.31697,3.13637 0.0651,3.49594 -0.15479,0.22092 -0.54399,1.63142 -0.63262,2.29314 -0.0643,0.48048 -0.34528,1.08929 -0.65855,1.42743 -0.23866,0.25717 -0.78476,1.28958 -0.78476,1.48272 0,0.0582 -0.26193,0.33655 -0.58208,0.61886 -0.32014,0.28231 -0.58208,0.55801 -0.58208,0.61304 0,0.15743 -0.61728,0.7067 -0.98716,0.87921 -0.49001,0.22781 -0.71888,0.37809 -1.09432,0.71835 -0.34766,0.31485 -0.73184,0.47995 -1.73646,0.74639 -0.32464,0.0863 -0.84958,0.29501 -1.16628,0.46408 -1.43484,0.7657 -4.74822,0.7403 -6.34418,-0.0484 -0.4019,-0.19871 -0.79508,-0.36116 -0.87392,-0.36116 -0.35825,0 -1.73673,-0.5752 -1.98676,-0.8292 -0.32729,-0.33232 -0.55456,-0.48684 -1.03055,-0.70089 -0.34449,-0.15504 -0.77152,-0.55483 -1.28931,-1.20703 -0.14473,-0.18256 -0.30375,-0.33205 -0.35322,-0.33205 -0.1143,0 -0.48631,-0.44132 -0.49107,-0.58208 -0.007,-0.19923 -0.59743,-1.22899 -0.87207,-1.51977 -0.28416,-0.30136 -0.71887,-1.51844 -0.71887,-2.01321 0,-0.84773 -1.21602,-1.0541 -2.22382,-0.37756 -0.55298,0.37147 -1.48722,0.78846 -1.7661,0.78846 -0.2577,0 -0.96043,0.38285 -1.31233,0.7149 -0.26379,0.24924 -0.55377,0.38629 -1.46394,0.69215 -0.20002,0.0672 -0.54319,0.30374 -0.76306,0.52573 -0.21987,0.22198 -0.60404,0.50059 -0.85381,0.61912 -0.70591,0.33523 -0.83714,0.42704 -1.45917,1.0205 -0.31989,0.30533 -0.62257,0.5551 -0.67284,0.5551 -0.0757,0 -0.517,0.41936 -1.77191,1.68407 -0.0818,0.0823 -0.41593,0.41831 -0.74269,0.74665 l -0.59452,0.59717 0.2241,0.26961 c 0.12303,0.14816 0.34687,0.47889 0.49689,0.73475 0.18944,0.32279 0.42466,0.54107 0.76729,0.7112 0.27199,0.13493 0.49424,0.31353 0.49424,0.39687 0,0.0833 0.0357,0.15161 0.0794,0.15214 0.0437,2.6e-4 0.16087,0.14393 0.26062,0.31908 0.0998,0.17542 0.26643,0.34978 0.37042,0.38762 0.236,0.086 0.77126,0.66331 0.77126,0.83185 0,0.0688 0.24394,0.37306 0.54186,0.67574 0.29792,0.30269 0.58156,0.70221 0.63024,0.88742 0.0484,0.18547 0.14287,0.55139 0.20955,0.81333 0.0667,0.26193 0.26591,0.762 0.44291,1.11125 0.26935,0.53181 0.88794,2.59265 1.1049,3.68061 0.0881,0.44106 0.31062,0.51277 2.38945,0.76862 0.41963,0.0516 0.52997,0.11351 0.66411,0.3728 0.0884,0.17092 0.23098,0.31088 0.31671,0.31088 0.086,0 0.1561,0.0381 0.1561,0.0847 0,0.1151 0.55113,0.29898 1.35996,0.4535 0.36962,0.0706 0.7157,0.18097 0.76888,0.245 0.63156,0.75909 1.2991,1.12184 2.06533,1.12184 0.44953,0 0.67416,0.0942 0.67416,0.2831 0,0.23495 0.70247,0.84693 1.05252,0.91705 0.17039,0.0339 0.51514,0.26696 0.76623,0.51752 0.5707,0.56965 1.08241,0.88186 1.59438,0.97287 0.31538,0.0564 0.39767,0.11854 0.40058,0.30401 0.005,0.30401 0.40137,0.7702 0.73713,0.86704 0.46381,0.13388 0.74083,0.36671 0.74083,0.62336 0,0.29289 0.57203,0.80671 0.898,0.80671 0.1733,0 0.26431,0.12224 0.41327,0.55563 0.145,0.42201 0.30216,0.63844 0.65273,0.89985 0.32465,0.24182 0.49953,0.4699 0.58843,0.76729 0.0698,0.23257 0.16643,0.42307 0.21458,0.42307 0.0481,0 0.15399,0.15875 0.23495,0.35269 0.22331,0.53419 0.82921,0.77126 2.18387,0.85434 2.55958,0.15716 2.53207,0.1516 2.95566,0.5969 0.40534,0.42624 1.05199,0.72575 1.75393,0.81306 0.49212,0.0611 0.68791,0.19076 0.68791,0.45561 0,0.24527 0.58447,0.73634 0.88133,0.74084 0.25823,0.004 0.53128,0.32914 0.63738,0.75988 0.0466,0.18865 0.23045,0.38073 0.53472,0.55906 0.4498,0.26353 0.58791,0.49133 0.59108,0.97341 0.003,0.4273 0.73502,1.51421 1.0205,1.51421 0.35348,0 0.59849,4.40002 0.35348,6.35 -0.0548,0.43656 -0.13149,1.09643 -0.17039,1.46632 -0.0646,0.61304 -0.0968,0.68183 -0.36486,0.77523 -0.3638,0.127 -0.58393,0.45376 -0.84878,1.26074 -0.16351,0.49768 -0.33364,0.74665 -0.83767,1.22687 -0.34793,0.33126 -0.63341,0.67654 -0.63447,0.76755 -0.002,0.22702 -0.45932,0.64162 -0.70723,0.64162 -0.11166,0 -0.29528,0.0699 -0.40852,0.15531 -0.11298,0.0855 -0.30057,0.15849 -0.41698,0.16219 -0.22093,0.007 -0.79375,0.44979 -0.79375,0.61357 0,0.27675 -0.43789,0.44529 -1.43405,0.55192 -0.57917,0.0619 -1.19115,0.15848 -1.35995,0.21431 -0.16881,0.0561 -0.4916,0.10187 -0.71782,0.10187 -0.49159,0 -0.97763,0.18997 -1.40943,0.55086 -0.17463,0.14578 -0.50615,0.30004 -0.73687,0.34237 -0.49847,0.0918 -1.08453,0.65537 -1.13453,1.09114 -0.0238,0.20664 -0.13547,0.34184 -0.38497,0.46646 -0.51488,0.25718 -0.75988,0.51303 -0.75988,0.79349 0,0.13652 -0.0445,0.24818 -0.0987,0.24818 -0.0542,0 -0.12886,0.0952 -0.1659,0.21166 -0.037,0.11642 -0.12356,0.21326 -0.19235,0.21511 -0.16113,0.004 -0.6014,0.37068 -0.6014,0.50006 0,0.12912 -0.72205,0.87233 -0.84746,0.87233 -0.13626,0 -0.63421,0.5543 -0.63421,0.70618 0,0.0693 -0.0953,0.15636 -0.21166,0.19341 -0.11642,0.037 -0.21167,0.11165 -0.21167,0.16589 0,0.0542 -0.11059,0.0987 -0.24553,0.0987 -0.25718,0 -0.54293,0.28019 -0.81624,0.80036 -0.11668,0.22199 -0.26511,0.32544 -0.52917,0.36963 -0.62733,0.10451 -1.05489,0.5117 -1.05489,1.00462 0,0.10054 -0.11086,0.15372 -0.32094,0.15372 -0.17648,0 -0.49186,0.0714 -0.70088,0.15875 -0.20876,0.0873 -0.45747,0.16034 -0.55219,0.16219 -0.18997,0.004 -0.75433,0.46011 -0.75433,0.61013 0,0.22992 -0.43471,0.44715 -1.07632,0.53816 -0.86386,0.12224 -1.31366,0.34872 -1.57612,0.79375 -0.21352,0.36195 -0.31592,0.39238 -2.32701,0.69136 -0.55325,0.082 -1.22582,0.46038 -1.31419,0.73872 -0.059,0.18626 -0.51303,0.36883 -1.18851,0.4781 -0.3511,0.0566 -0.77073,0.34634 -0.77576,0.53552 -0.002,0.0598 -0.14208,0.245 -0.31194,0.41169 -0.34925,0.34263 -0.84931,1.7772 -0.84931,2.43628 0,0.29977 -0.0683,0.45588 -0.2749,0.62892 -0.57071,0.47783 -0.88927,0.8501 -0.88927,1.03954 0,0.10795 -0.0439,0.19606 -0.0974,0.19606 -0.0537,0 -0.13123,0.15478 -0.17224,0.34396 -0.0952,0.43841 -0.42969,0.77285 -0.8681,0.8681 -0.18918,0.041 -0.34396,0.11853 -0.34396,0.17224 0,0.0534 -0.0881,0.0974 -0.19605,0.0974 -0.18945,0 -0.56172,0.31856 -1.03955,0.88926 -0.15928,0.1905 -0.33814,0.27702 -0.58209,0.28178 -0.75988,0.0153 -1.85525,0.53552 -2.01559,0.95753 -0.13573,0.35772 -6.00922,0.45217 -6.00922,0.0968 0,-0.38946 -1.33588,-1.06124 -2.11031,-1.06124 -0.32941,0 -0.52123,-0.13679 -0.8345,-0.59558 -0.12436,-0.18204 -0.39159,-0.40932 -0.59399,-0.50536 -0.20241,-0.0961 -0.39661,-0.22119 -0.4318,-0.27781 -0.0349,-0.0566 -0.15611,-0.10293 -0.26908,-0.10293 -0.11298,0 -0.20532,-0.0458 -0.20532,-0.1016 0,-0.0558 -0.11192,-0.21061 -0.24871,-0.34396 -0.13705,-0.13335 -0.4236,-0.53604 -0.63738,-0.89482 -0.21352,-0.35877 -0.54134,-0.7493 -0.7284,-0.86783 -0.284161,-0.17992 -0.36036,-0.31671 -0.461696,-0.8292 -0.310621,-1.57295 -0.373856,-1.77165 -0.712258,-2.23944 -0.819415,-1.13268 -0.827617,-3.8264 -0.01508,-5.05036 0.42545,-0.64082 0.787929,-1.81055 0.790839,-2.55191 0.0018,-0.45773 0.261673,-0.77338 0.636325,-0.77338 0.16748,0 0.49159,-0.52493 0.55007,-0.89111 0.0191,-0.11854 0.23124,-0.30216 0.50879,-0.44001 0.35269,-0.17515 0.54795,-0.36935 0.75274,-0.74903 0.23627,-0.43842 0.32835,-0.51779 0.635,-0.54716 0.40931,-0.0392 0.76041,-0.32464 0.94377,-0.76729 0.0918,-0.22119 0.21696,-0.31829 0.45826,-0.35534 0.18282,-0.0283 0.83238,-0.12726 1.44356,-0.22013 0.61119,-0.0929 1.3843,-0.23786 1.71821,-0.322 0.79084,-0.19923 2.69478,-0.19817 3.57346,0.002 0.61542,0.1405 1.8841,0.35772 3.14854,0.53975 0.33391,0.0479 0.44979,0.11245 0.44979,0.25056 0,0.33153 0.48022,0.77338 0.91573,0.84297 0.31326,0.05 0.44397,0.13811 0.56673,0.38179 0.26406,0.52387 0.45588,0.72972 0.88795,0.95197 0.3167,0.16298 0.45111,0.3212 0.58446,0.68792 0.13282,0.36645 0.26194,0.51832 0.5588,0.65855 0.49001,0.23124 0.48551,0.22251 0.62124,1.19803 0.1659,1.19327 0.66437,2.27092 1.05013,2.27092 0.0587,0 0.10663,0.0651 0.10663,0.14472 0,0.25691 1.14882,0.508 1.75419,0.38365 0.28654,-0.059 0.67786,-0.13705 0.86942,-0.17357 0.22463,-0.0429 0.47572,-0.21563 0.70802,-0.48709 0.35719,-0.41699 1.1266,-0.6985 1.94363,-0.71068 0.35401,-0.005 0.80778,-0.36115 1.01362,-0.79533 0.15822,-0.33311 0.22093,-0.37254 0.5932,-0.37254 0.72654,0 1.79625,-0.54213 1.79625,-0.91043 0,-0.21166 0.53129,-0.57123 0.84455,-0.57123 0.322,0 0.50933,-0.18653 0.77179,-0.76729 0.12515,-0.27702 0.24712,-0.39688 0.40323,-0.39688 0.32358,0 0.94377,-0.31723 0.94377,-0.48286 0,-0.17516 0.45852,-0.68131 0.61727,-0.68131 0.15161,0 0.86439,-0.71278 0.86439,-0.86439 0,-0.15028 0.50086,-0.61621 0.66702,-0.62071 1.02711,-0.0267 0.53472,-3.38323 -0.49636,-3.38323 -0.12991,0 -0.32835,-0.0698 -0.44159,-0.15531 -0.11298,-0.0855 -0.33629,-0.1569 -0.49636,-0.15875 -0.18653,-0.002 -0.29104,-0.0603 -0.29104,-0.16219 0,-0.0873 -0.05,-0.15875 -0.11113,-0.15875 -0.0614,0 -0.17674,-0.15478 -0.25664,-0.34396 -0.0802,-0.18917 -0.37544,-0.56065 -0.65617,-0.8255 -0.49424,-0.46593 -0.88106,-1.09696 -0.88106,-1.43721 0,-0.30507 -0.36751,-0.7964 -0.70062,-0.93636 -0.37359,-0.15717 -0.40693,-0.27067 -0.52467,-1.79626 -0.10212,-1.32133 -0.44185,-1.96321 -1.03875,-1.96321 -0.0852,0 -0.21802,-0.0622 -0.29475,-0.13811 -0.22251,-0.21934 -2.97444,-1.02606 -3.5007,-1.02606 -0.13308,0 -0.40799,-0.13626 -0.61039,-0.30294 -0.44159,-0.36381 -1.2708,-0.75539 -1.59888,-0.75539 -0.34581,0 -1.03822,-0.36565 -1.50019,-0.79243 -0.22172,-0.20452 -0.46408,-0.37174 -0.53869,-0.37174 -0.25029,0 -1.43377,-0.64664 -1.62322,-0.88688 -0.10292,-0.13069 -0.47281,-0.37225 -0.82206,-0.53735 -0.34925,-0.16484 -0.83952,-0.50721 -1.08982,-0.76068 -0.25003,-0.25347 -0.51196,-0.4617 -0.58208,-0.46249 -0.16642,-0.002 -1.02685,-0.7792 -1.02685,-0.92763 0,-0.0632 -0.0963,-0.14526 -0.21378,-0.18283 -0.11748,-0.0373 -0.42757,-0.23098 -0.68871,-0.43021 -0.26141,-0.1995 -0.49848,-0.36274 -0.52705,-0.36274 -0.0648,0 -0.38629,-0.33444 -0.52837,-0.54901 -0.0582,-0.0881 -0.23681,-0.35693 -0.39688,-0.59717 -0.16007,-0.2405 -0.29104,-0.48577 -0.29104,-0.54504 0,-0.0593 -0.0529,-0.10795 -0.11748,-0.10795 -0.13864,0 -1.04669,-0.89958 -1.04669,-1.03664 0,-0.0519 -0.26114,-0.32782 -0.58049,-0.61357 -0.31935,-0.28575 -0.58129,-0.56991 -0.58209,-0.63156 -0.005,-0.34475 -0.30374,-0.50032 -1.12183,-0.58367 -2.30002,-0.23495 -2.77945,-0.30295 -3.21892,-0.45693 -0.26194,-0.0918 -0.53366,-0.16775 -0.60378,-0.16854 -0.10874,-0.001 -0.68315,-0.33867 -1.03664,-0.60854 -0.0582,-0.0445 -0.36777,-0.19844 -0.68791,-0.34185 -0.52388,-0.23468 -0.86493,-0.51726 -2.02777,-1.6801 -1.207558,-1.20756 -1.475845,-1.51659 -1.678781,-1.93358 -0.124354,-0.25558 -0.270139,-0.53604 -0.32385,-0.62335 -0.05371,-0.0873 -0.142081,-0.26141 -0.196585,-0.38656 -0.0545,-0.12541 -0.150283,-0.25956 -0.21299,-0.29819 -0.242887,-0.15028 -0.510646,-0.88265 -0.581289,-1.59067 -0.04075,-0.40746 -0.142082,-1.0414 -0.225161,-1.40891 -0.219604,-0.97102 -0.193939,-2.98185 0.05503,-4.28519 0.113241,-0.59346 0.234156,-1.25598 0.268552,-1.47188 0.03492,-0.21933 0.189706,-0.52334 0.350043,-0.68791 0.158221,-0.16246 0.364861,-0.46196 0.459317,-0.66569 0.589756,-1.27265 0.786871,-1.60444 1.319474,-2.2225 1.00754,-1.16893 1.11363,-1.27186 1.69757,-1.64545 0.31194,-0.19949 0.56727,-0.41089 0.56727,-0.4699 0,-0.059 0.073,-0.10715 0.16219,-0.10715 0.0889,0 0.18944,-0.0714 0.22277,-0.15875 0.0336,-0.0873 0.11722,-0.15875 0.18601,-0.15875 0.0688,0 0.31194,-0.0952 0.54028,-0.21167 0.22833,-0.11642 0.49926,-0.21167 0.60219,-0.21167 0.26379,0 1.05066,-0.31644 1.30281,-0.52387 0.39423,-0.32438 1.252,-0.517 2.59291,-0.58261 l 1.32292,-0.0646 0.3175,-0.37254 c 0.17462,-0.20505 0.49609,-0.5662 0.71437,-0.80274 0.21829,-0.23654 0.39688,-0.46831 0.39688,-0.51488 0,-0.0466 0.0357,-0.10028 0.0794,-0.11986 0.0437,-0.0193 0.15796,-0.17806 0.25373,-0.35269 0.096,-0.17462 0.3736,-0.45402 0.61675,-0.62097 0.24315,-0.16696 0.46937,-0.38127 0.50244,-0.47625 0.0926,-0.26538 0.58314,-0.76518 0.85408,-0.87048 0.13335,-0.0519 0.32385,-0.23707 0.42333,-0.41196 0.0992,-0.17462 0.21643,-0.31803 0.26009,-0.31829 0.0437,-5.3e-4 0.0794,-0.0693 0.0794,-0.15293 0,-0.0836 0.23812,-0.28178 0.52916,-0.44027 0.29104,-0.15822 0.52996,-0.33999 0.53076,-0.40349 0.002,-0.1352 1.02711,-0.90911 1.20464,-0.90911 0.0667,0 0.35111,-0.21087 0.63209,-0.46884 0.46038,-0.4228 1.465,-1.01282 1.72429,-1.01282 0.0558,0 0.20664,-0.14182 0.3347,-0.31512 0.19579,-0.26459 1.21497,-0.84905 1.48087,-0.84905 0.14553,0 0.91679,-0.42228 1.02474,-0.56092 0.18415,-0.23627 0.86201,-0.60325 1.11442,-0.60325 0.41672,0 1.40229,-0.35004 1.95474,-0.69426 0.30824,-0.19236 0.92657,-0.42625 1.48167,-0.56092 1.56554,-0.37941 2.27542,-0.96203 2.27542,-1.86769 0,-0.40535 0.49186,-1.61608 0.77364,-1.90421 0.17065,-0.17463 0.43735,-0.57944 0.5924,-0.89958 0.38761,-0.80037 0.64241,-1.16417 0.81571,-1.16417 0.0807,0 0.14658,-0.0495 0.14658,-0.11007 0,-0.17515 0.45032,-0.7366 0.59055,-0.7366 0.0704,0 0.15505,-0.0714 0.18865,-0.15875 0.0333,-0.0873 0.12964,-0.15875 0.21352,-0.15875 0.0839,0 0.26405,-0.1315 0.40005,-0.292629 0.33496,-0.39528 0.82973,-0.73527 1.2065,-0.82841 0.38496,-0.0952 1.1049,-0.5379 1.1049,-0.67945 0,-0.0574 0.0595,-0.10451 0.13229,-0.10424 0.0728,2.6e-4 0.32279,-0.0921 0.55562,-0.20506 0.93822,-0.45481 4.47464,-0.66939 6.24417,-0.37861 m -3.175,4.280949 c -0.17463,0.0482 -0.508,0.0931 -0.74083,0.10002 -0.59876,0.0177 -1.34065,0.32702 -1.70207,0.70908 -0.36512,0.38603 -0.92525,0.78502 -1.10199,0.78502 -0.14816,0 -0.52123,0.42333 -0.52625,0.59769 -0.003,0.1225 -0.59214,0.68263 -0.89694,0.85302 -0.1868,0.10451 -0.45482,0.95382 -0.58261,1.846 -0.0474,0.32887 -0.11695,0.64849 -0.15505,0.71014 -0.21008,0.33972 -0.24448,1.57215 -0.0643,2.29023 0.10213,0.40746 0.26538,1.09617 0.36274,1.53088 0.14208,0.63606 0.24448,0.85222 0.5252,1.11125 0.19182,0.17648 0.48234,0.52361 0.64506,0.771 0.16298,0.24738 0.3257,0.44979 0.36168,0.44979 0.036,2.6e-4 0.3429,0.25268 0.68236,0.56118 0.47943,0.43577 0.78608,0.61463 1.37583,0.80275 0.85276,0.27172 1.36711,0.49556 1.78065,0.7747 0.30665,0.20717 1.85976,0.27781 2.05264,0.0937 0.23151,-0.22119 1.10701,-0.62151 1.86399,-0.85249 0.5715,-0.1741 0.93239,-0.35983 1.22184,-0.62839 0.22569,-0.20955 0.63395,-0.5715 0.90726,-0.80433 0.27305,-0.23283 0.49742,-0.47942 0.49821,-0.54795 7.9e-4,-0.0685 0.11298,-0.21246 0.24924,-0.31962 0.46672,-0.36698 0.79004,-1.02473 0.9062,-1.84361 0.0608,-0.42969 0.15954,-0.94774 0.21907,-1.15094 0.1569,-0.53446 0.13309,-1.57904 -0.0492,-2.1799 -0.0865,-0.28575 -0.15716,-0.63871 -0.15689,-0.78423 0.001,-0.47757 -0.46752,-1.79334 -0.66173,-1.85737 -0.22516,-0.0744 -0.79824,-0.67204 -0.9652,-1.00701 -0.068,-0.13652 -0.31141,-0.34554 -0.54054,-0.4646 -0.22939,-0.11907 -0.60986,-0.39926 -0.84587,-0.62257 -0.53234,-0.50377 -0.98796,-0.71226 -1.80499,-0.82523 -1.02235,-0.14129 -2.51407,-0.19262 -2.8575,-0.0982 m 3.38878,0.36803 c 0.23416,0.0825 0.65485,0.36327 0.93478,0.62389 0.27992,0.26088 0.71278,0.55192 0.96202,0.64717 0.37492,0.14314 0.48657,0.25453 0.64797,0.64585 0.10742,0.26008 0.28045,0.4998 0.38523,0.53313 0.10451,0.0331 0.18997,0.0995 0.18997,0.14764 0,0.0479 0.10901,0.11456 0.24209,0.1479 0.25744,0.0646 0.39582,0.36513 0.59161,1.28508 0.0622,0.29105 0.16166,0.75274 0.22172,1.02579 0.17066,0.7792 0.12833,2.08862 -0.10821,3.33455 -0.28099,1.48113 -0.27199,1.45626 -0.57547,1.61845 -0.14261,0.0765 -0.39185,0.33258 -0.55377,0.56912 -0.37571,0.54928 -0.62998,0.80725 -0.79693,0.80857 -0.0728,5.3e-4 -0.22754,0.12382 -0.34396,0.27384 -0.43418,0.5596 -0.72416,0.78026 -1.09775,0.83556 -0.68025,0.10054 -1.84309,0.51646 -2.13837,0.76464 -0.39608,0.33338 -1.42636,0.34687 -1.77376,0.0233 -0.2839,-0.26458 -1.53908,-0.73422 -1.96215,-0.73422 -0.38259,0 -0.94695,-0.34104 -1.0922,-0.66013 -0.0606,-0.13309 -0.24739,-0.31168 -0.41513,-0.39714 -0.41117,-0.20955 -0.73687,-0.53287 -0.82656,-0.821 -0.041,-0.13071 -0.3093,-0.43577 -0.59637,-0.67787 -0.44212,-0.37279 -0.52229,-0.49715 -0.52229,-0.81015 0,-0.2032 -0.0767,-0.74851 -0.17066,-1.21153 -0.34343,-1.69518 0.16431,-5.26468 0.74904,-5.26468 0.22013,0 0.90329,-0.73713 0.90329,-0.97446 0,-0.14102 0.16695,-0.27569 0.55562,-0.44873 0.30559,-0.136 0.76597,-0.44847 1.02288,-0.69453 0.50721,-0.48525 0.80963,-0.6178 1.70233,-0.74613 0.85381,-0.12276 3.36153,-0.0214 3.86503,0.15611 m -33.87407,21.32462 c -0.18786,0.17966 -1.093,0.64479 -1.25466,0.64479 -0.32649,0 -1.34937,0.44953 -1.40837,0.61886 -0.0794,0.22887 -0.78343,0.96864 -0.92155,0.96864 -0.14552,0 -0.59055,0.52785 -0.59055,0.70036 0,0.0759 -0.18521,0.32146 -0.41169,0.54583 -1.17448,1.16284 -1.21549,5.52344 -0.0624,6.65718 0.31115,0.30612 0.78661,1.12131 0.79507,1.36393 0.008,0.23098 0.43313,0.57732 1.22,0.9943 0.46222,0.24527 0.93556,0.55827 1.05198,0.69586 0.82629,0.97605 5.16414,0.94694 6.17591,-0.0413 0.15742,-0.15399 0.49768,-0.37518 0.75617,-0.4916 0.53605,-0.24156 1.05675,-0.64823 1.06178,-0.82973 0.005,-0.17489 0.37729,-0.59902 0.52572,-0.59902 0.15479,0 0.52097,-0.4273 0.52573,-0.61357 0.002,-0.0757 0.0987,-0.3347 0.21511,-0.57547 0.11641,-0.24103 0.21166,-0.48101 0.21166,-0.5334 0,-0.0526 0.14553,-0.40984 0.32333,-0.79401 0.55403,-1.19698 0.52228,-2.91465 -0.068,-3.69411 -0.1405,-0.18548 -0.25533,-0.41222 -0.25533,-0.50403 0,-0.0918 -0.0886,-0.36883 -0.19711,-0.61543 -0.10848,-0.24685 -0.28231,-0.65113 -0.38656,-0.89852 -0.10424,-0.24739 -0.23045,-0.44979 -0.28099,-0.44979 -0.13758,0 -0.81597,-0.72681 -0.98716,-1.05781 -0.0963,-0.18626 -0.31247,-0.34739 -0.6043,-0.45058 -1.43008,-0.50562 -1.82351,-0.68686 -2.06481,-0.95224 -0.18759,-0.20611 -3.16416,-0.28469 -3.36894,-0.0892 m 2.50798,0.20558 c 0.38682,0.10107 0.76782,0.2339 0.84667,0.29528 0.0786,0.0614 0.59558,0.26749 1.14856,0.45826 1.21046,0.41751 1.37583,0.499 1.37583,0.67786 0,0.18362 0.55139,0.90408 0.69585,0.90884 0.29792,0.0103 0.65167,0.64665 1.03214,1.85606 0.0915,0.29104 0.31142,0.93397 0.48895,1.42875 0.26326,0.73369 0.30322,0.9562 0.21696,1.2065 -0.0579,0.1688 -0.10557,0.45561 -0.10557,0.63791 0,0.18203 -0.0622,0.42492 -0.13811,0.53975 -0.0759,0.11483 -0.24765,0.56594 -0.38179,1.0025 -0.41619,1.35493 -0.55166,1.69334 -0.67945,1.69678 -0.21617,0.006 -0.58103,0.37729 -0.8181,0.83185 -0.24738,0.47492 -0.39052,0.58155 -0.91387,0.6805 -0.32729,0.0622 -0.56197,0.21008 -1.0361,0.65379 -0.62442,0.58446 -1.6428,0.71543 -4.11057,0.52864 l -1.03981,-0.0789 -0.44186,-0.44767 c -0.24288,-0.24607 -0.71781,-0.57812 -1.05568,-0.73793 -0.7792,-0.3683 -1.06918,-0.66172 -1.51104,-1.52982 -0.19526,-0.38364 -0.52096,-0.84058 -0.72363,-1.0152 -0.61357,-0.52864 -0.88504,-3.23559 -0.48313,-4.81542 0.0519,-0.20373 0.11879,-0.48948 0.14896,-0.635 0.0299,-0.14552 0.19976,-0.35983 0.37703,-0.47625 0.31353,-0.20558 0.74215,-0.87048 0.74215,-1.15067 0,-0.0762 0.23548,-0.2667 0.52309,-0.42334 0.2876,-0.15663 0.55165,-0.37438 0.58631,-0.48418 0.12621,-0.39688 0.48895,-0.74639 0.77497,-0.74639 0.46064,0 1.9169,-0.54266 2.16852,-0.80831 0.29342,-0.30982 1.24751,-0.33231 2.31272,-0.0542 m 10.74447,10.08724 c -0.22304,0.23284 -0.54028,0.47017 -0.70538,0.52758 -0.29739,0.10372 -0.71914,0.8091 -0.88106,1.47347 -0.0365,0.14949 -0.22463,0.43524 -0.41804,0.635 -0.19341,0.19976 -0.46064,0.58923 -0.59426,0.86571 -0.25109,0.51991 -0.86228,1.20624 -1.48405,1.66688 -0.19658,0.14552 -0.56647,0.46752 -0.82259,0.71543 -0.25585,0.24818 -0.64981,0.5678 -0.8755,0.71014 -0.54822,0.34608 -0.57177,0.4072 -0.26644,0.69427 0.14394,0.13494 0.26141,0.30851 0.26141,0.38576 0,0.077 0.0418,0.14023 0.0929,0.14023 0.0513,0 0.15637,0.15267 0.23363,0.33946 0.15107,0.3646 0.4572,0.71888 0.62124,0.71888 0.12091,0 0.63976,0.50376 0.63976,0.62124 0,0.10054 0.46011,0.54292 0.56462,0.54292 0.18706,0 0.89853,0.56304 1.00383,0.79428 0.0675,0.14817 0.37677,0.3892 0.72946,0.56859 0.57282,0.29131 1.01811,0.62601 1.10437,0.83 0.0415,0.0982 1.55099,0.8763 1.69968,0.8763 0.0521,0 0.24712,0.15954 0.43313,0.35454 0.23468,0.24553 0.56647,0.42625 1.0795,0.58791 0.87815,0.27649 1.64041,0.62759 1.64041,0.75538 0,0.11536 0.9144,0.52467 1.17211,0.52467 0.10609,0 0.58711,0.12462 1.06891,0.27675 1.87352,0.59188 2.75537,0.16775 3.15172,-1.51579 0.11351,-0.48234 0.18627,-0.5842 0.5842,-0.81757 0.2884,-0.16907 0.48022,-0.3683 0.5244,-0.54477 0.11457,-0.45615 0.38391,-0.78529 0.64294,-0.78529 0.31433,0 0.64664,-0.28046 0.87471,-0.73818 0.13706,-0.27544 0.27279,-0.3855 0.54081,-0.43921 0.47943,-0.0958 0.85937,-0.30851 0.85937,-0.48102 0,-0.0773 0.0952,-0.236 0.21167,-0.35242 0.24765,-0.24765 0.27357,-0.48286 0.0619,-0.56383 -0.0823,-0.0318 -0.21035,-0.32887 -0.28443,-0.6604 -0.15399,-0.68818 -0.47652,-1.2274 -0.78396,-1.31127 -0.35031,-0.0955 -0.68686,-0.36248 -0.68686,-0.54478 0,-0.28707 -0.39476,-0.69532 -0.84693,-0.8763 -0.27411,-0.10954 -0.47202,-0.27543 -0.55139,-0.46196 -0.14843,-0.34899 -0.50245,-0.76729 -0.64929,-0.76729 -0.20638,0 -0.91043,-0.37227 -0.91308,-0.48287 -0.007,-0.31062 -0.91149,-0.8718 -1.769,-1.09802 -0.29872,-0.0789 -0.46673,-0.19076 -0.51515,-0.3429 -0.0945,-0.29766 -0.55906,-0.72205 -0.79031,-0.72205 -0.1008,0 -0.35427,-0.0714 -0.56303,-0.15875 -0.20902,-0.0873 -0.5289,-0.15875 -0.71094,-0.15875 -0.24156,0 -0.34554,-0.0569 -0.38602,-0.21166 -0.0304,-0.11642 -0.0918,-0.21167 -0.13653,-0.21167 -0.0447,0 -0.10318,-0.0841 -0.13017,-0.18733 -0.064,-0.24473 -1.04167,-0.5535 -1.7526,-0.5535 -0.66649,0 -1.06627,-0.17119 -1.14644,-0.49054 -0.0336,-0.13362 -0.15161,-0.27146 -0.2622,-0.30665 -0.1106,-0.0349 -0.20109,-0.10822 -0.20109,-0.16246 0,-0.2077 -0.28046,-0.0646 -0.66992,0.34184 m 1.04034,0.7157 c 0.34925,0.11192 0.9861,0.31433 1.41552,0.44979 0.42915,0.13521 0.80301,0.30454 0.83079,0.37624 0.0564,0.14632 0.60616,0.41593 1.6002,0.78476 0.36936,0.13705 0.84561,0.39714 1.05834,0.57758 0.43418,0.36883 0.98768,0.67707 1.21549,0.67707 0.0831,0 0.39846,0.23601 0.70115,0.52467 0.30242,0.28839 0.64611,0.55509 0.76358,0.5924 0.3183,0.10081 1.05569,0.62045 1.36711,0.96282 0.15054,0.16589 0.45429,0.44423 0.67495,0.61886 0.3802,0.3011 0.59558,0.51594 1.23031,1.2274 0.15055,0.16907 0.30533,0.30718 0.34396,0.30718 0.0982,0 0.49318,0.40587 0.49318,0.50668 0,0.046 0.0952,0.2704 0.21167,0.49874 0.27702,0.54345 0.26829,1.21708 -0.0159,1.21708 -0.0542,0 -0.20108,0.0952 -0.32597,0.21167 -0.12488,0.11642 -0.29236,0.21167 -0.372,0.21167 -0.0796,0 -0.38656,0.23812 -0.68236,0.52916 -0.29554,0.29104 -0.58473,0.52917 -0.64267,0.52917 -0.16378,0 -1.50257,1.46103 -1.68117,1.83489 -0.4437,0.92895 -0.5506,1.10542 -0.89191,1.47478 -0.51223,0.55351 -1.10014,0.77814 -1.6256,0.62072 -0.22092,-0.0661 -0.53895,-0.12198 -0.7067,-0.12383 -0.50244,-0.006 -1.33906,-0.3519 -1.73408,-0.71781 -0.20373,-0.18865 -0.56092,-0.39132 -0.79375,-0.45085 -0.23283,-0.0593 -0.5424,-0.14923 -0.68792,-0.20003 -0.14552,-0.0508 -0.38364,-0.118 -0.52916,-0.14949 -0.14552,-0.0315 -0.48869,-0.26934 -0.7628,-0.52837 -0.27384,-0.25929 -0.65299,-0.50509 -0.84243,-0.5469 -0.45297,-0.0995 -1.14644,-0.4646 -1.14644,-0.60351 0,-0.21775 -0.97763,-0.86942 -1.46447,-0.97631 -0.23759,-0.0521 -0.3802,-0.16272 -0.45111,-0.34925 -0.13044,-0.34264 -0.57759,-0.76465 -0.81518,-0.76915 -0.32385,-0.006 -0.72443,-0.41857 -0.92499,-0.9525 -0.0336,-0.0892 -0.21299,-0.22701 -0.39872,-0.30638 -0.50351,-0.21511 -0.69639,-0.42043 -0.77153,-0.82048 -0.037,-0.19817 -0.20055,-0.49344 -0.36327,-0.6559 l -0.29554,-0.2958 0.3347,-0.19077 c 0.34766,-0.19844 0.50667,-0.32993 1.12844,-0.93398 0.20373,-0.19817 0.63659,-0.55351 0.96203,-0.79004 0.45932,-0.33364 0.66834,-0.58394 0.93318,-1.11654 0.18759,-0.3773 0.50192,-0.83238 0.69824,-1.01098 0.23971,-0.21828 0.41831,-0.52572 0.54345,-0.93689 0.26115,-0.85672 0.37598,-0.99218 1.06813,-1.26021 0.75512,-0.29236 0.60457,-0.28707 1.35122,-0.0474 m 16.21659,11.32258 c -0.21273,0.25321 -0.37042,0.32068 -0.88239,0.37836 -1.78673,0.20134 -2.47544,0.48339 -2.47544,1.01388 0,0.10504 -0.14234,0.23257 -0.34396,0.3085 -0.69876,0.26273 -0.81862,0.36169 -0.99298,0.81783 -0.13044,0.34158 -0.26749,0.50271 -0.51594,0.60643 -0.39317,0.16457 -0.79295,0.67653 -0.79295,1.016 0,0.40057 -0.23601,1.04986 -0.47572,1.30836 -0.94615,1.02103 -0.94748,4.20211 -0.002,4.63285 0.26829,0.12251 0.47757,0.63289 0.47757,1.16523 0,0.20637 0.0871,0.48868 0.19368,0.62759 0.10636,0.13891 0.22463,0.33761 0.26273,0.44159 0.0381,0.10398 0.21246,0.27067 0.38788,0.37042 0.17515,0.0998 0.31882,0.24077 0.31908,0.31353 5.3e-4,0.0728 0.0415,0.13229 0.0913,0.13229 0.0497,0 0.22199,0.20796 0.38259,0.46196 0.32544,0.51488 1.01891,0.94933 1.69942,1.06416 0.29977,0.0505 0.48419,0.15901 0.62309,0.36565 0.39,0.58023 0.86519,0.69744 2.97233,0.73263 l 1.905,0.0318 0.58209,-0.29633 c 0.32014,-0.16272 0.62812,-0.40085 0.68421,-0.52864 0.0714,-0.16298 0.22992,-0.25294 0.52916,-0.3003 0.74322,-0.11721 1.31181,-0.4617 1.83674,-1.1131 0.27252,-0.33814 0.55483,-0.61807 0.62759,-0.62204 0.0728,-0.004 0.1323,-0.055 0.1323,-0.11324 0,-0.0582 0.0712,-0.10583 0.15822,-0.10583 0.19605,0 0.51593,-0.68051 0.74453,-1.58353 0.10901,-0.43075 0.28972,-0.81677 0.48895,-1.04352 0.78979,-0.89958 0.82418,-3.38852 0.0616,-4.4331 -0.20373,-0.27887 -0.45164,-0.79269 -0.55086,-1.14194 -0.27596,-0.96943 -0.38894,-1.14697 -0.87603,-1.37318 -0.32941,-0.15293 -0.4498,-0.2712 -0.4498,-0.44159 0,-0.32306 -0.49688,-0.88398 -0.78316,-0.88398 -0.26088,0 -0.6985,-0.3556 -0.6985,-0.56779 0,-0.43048 -0.6567,-0.6694 -2.36961,-0.86254 -0.51197,-0.0577 -0.66966,-0.12515 -0.88239,-0.37836 -0.39264,-0.46646 -1.67587,-0.46646 -2.06851,0 m 3.38032,0.88292 c 0.86783,0.21378 1.02605,0.2921 1.50045,0.74109 0.29157,0.27623 0.60246,0.50218 0.69083,0.50218 0.0881,0 0.31776,0.20003 0.51011,0.44477 0.19262,0.24447 0.60352,0.69797 0.91308,1.0078 0.53605,0.53631 0.57573,0.61489 0.82921,1.64174 0.14631,0.59319 0.32676,1.19909 0.4011,1.34672 0.27993,0.55669 0.2802,1.58962 2.7e-4,2.38919 -0.14208,0.40534 -0.25824,0.80328 -0.2585,0.88424 -0.002,0.499 -0.46831,1.64571 -0.80142,1.96929 -0.19976,0.19394 -0.36328,0.38286 -0.36328,0.41963 0,0.0847 -0.7493,0.8263 -1.40255,1.38801 -0.55801,0.47995 -0.71887,0.56647 -1.56078,0.83899 -0.32014,0.10372 -0.65352,0.2495 -0.74083,0.32359 -0.89085,0.75803 -3.18479,0.75697 -4.1275,-0.002 -0.18336,-0.14738 -1.05304,-0.48102 -1.25439,-0.48102 -0.31274,0 -2.34395,-1.72693 -2.34395,-1.99257 0,-0.0561 -0.21431,-0.32888 -0.47625,-0.60616 -0.26193,-0.27729 -0.47625,-0.57653 -0.47625,-0.6649 0,-0.1987 -0.38126,-1.47717 -0.64849,-2.17435 -0.23733,-0.61912 -0.24844,-1.4433 -0.0275,-2.02327 0.17542,-0.4609 0.22754,-0.63711 0.5625,-1.905 0.12304,-0.46566 0.27041,-0.86254 0.32729,-0.88185 0.0572,-0.0196 0.10372,-0.10293 0.10372,-0.18521 0,-0.0825 0.063,-0.15002 0.13997,-0.15002 0.077,0 0.30321,-0.1987 0.5027,-0.44133 0.77312,-0.94059 0.97155,-1.14617 1.10596,-1.14617 0.0767,0 0.39317,-0.23204 0.70353,-0.51541 0.51779,-0.47307 0.64664,-0.53393 1.56951,-0.73951 1.7653,-0.39291 2.99138,-0.38973 4.62147,0.0116 m -34.3807,20.92456 c -0.56938,0.10345 -0.99853,0.38126 -1.08161,0.69982 -0.0614,0.23495 -0.46593,0.46805 -0.81254,0.46805 -0.28099,0 -1.04907,0.3974 -1.04907,0.54292 0,0.13415 -0.43656,0.61675 -0.56065,0.61939 -0.20003,0.004 -0.58209,0.56621 -0.64268,0.94457 -0.0516,0.32252 -0.14446,0.45799 -0.42889,0.626 -0.70352,0.41487 -0.90778,1.2917 -0.90778,3.89414 0,2.41564 0.2577,3.4245 0.90699,3.54938 0.13494,0.0262 0.25426,0.22913 0.38338,0.653 0.31803,1.04457 0.79507,1.60655 1.69942,2.00157 0.16007,0.0699 0.29104,0.1643 0.29104,0.20981 0,0.0929 0.39211,0.50589 0.48048,0.50589 0.0315,0 0.18627,0.0937 0.34396,0.20822 0.21617,0.15717 0.53446,0.22437 1.29223,0.27385 1.21232,0.0791 1.66793,0.20187 1.98861,0.53551 0.30533,0.31777 0.39581,0.31565 0.88053,-0.0204 0.31327,-0.21695 0.65405,-0.30876 1.66926,-0.44979 0.85777,-0.11906 1.34646,-0.23759 1.49198,-0.36221 0.1188,-0.10187 0.25268,-0.18521 0.29713,-0.18521 0.0447,0 0.20029,-0.13097 0.34581,-0.29104 0.29342,-0.32279 0.88873,-0.76729 1.02738,-0.76729 0.12832,0 0.76596,-0.67628 0.76596,-0.81227 0,-0.063 0.0664,-0.16934 0.14764,-0.23681 0.0812,-0.0675 0.1786,-0.2876 0.21643,-0.48921 0.041,-0.21881 0.13097,-0.36671 0.22278,-0.36671 0.0847,0 0.15399,-0.0683 0.15399,-0.15161 0,-0.0833 0.0839,-0.17833 0.18626,-0.21087 0.50165,-0.15902 0.6014,-0.77285 0.60431,-3.71211 0.003,-3.20807 -0.0664,-3.4835 -0.97578,-3.86397 -0.16113,-0.0672 -0.23813,-0.18944 -0.23813,-0.3773 0,-0.42809 -0.31247,-0.99219 -0.58764,-1.06124 -0.13493,-0.0339 -0.35533,-0.22516 -0.49027,-0.42492 -0.30162,-0.44741 -0.84084,-0.78132 -1.26153,-0.78132 -0.28099,0 -0.83397,-0.41248 -0.83635,-0.62388 -0.006,-0.50959 -3.70549,-0.87392 -5.52265,-0.54399 m 4.30636,0.70538 c 1.06019,0.55616 1.52056,0.77232 1.78514,0.83873 0.14844,0.0373 0.32544,0.13467 0.39318,0.21616 0.0677,0.0818 0.18864,0.14844 0.26881,0.14844 0.0802,0 0.14579,0.0402 0.14579,0.0894 0,0.1389 0.45535,0.61251 0.65722,0.68368 0.23284,0.082 0.82444,0.89614 0.82444,1.1348 0,0.10054 0.0714,0.24209 0.15875,0.31459 0.0873,0.0725 0.15875,0.19156 0.15875,0.26458 0,0.073 0.0751,0.19526 0.16696,0.27146 0.9226,0.76571 1.02684,4.7715 0.15398,5.91979 -0.15478,0.20373 -0.39502,0.60854 -0.53393,0.89958 -0.13864,0.29105 -0.30241,0.58526 -0.36353,0.65379 -0.76941,0.86095 -1.43034,1.45812 -1.84918,1.67031 -0.28125,0.14235 -0.53948,0.33259 -0.57414,0.42254 -0.0344,0.0902 -0.13176,0.16378 -0.2159,0.16378 -0.0844,0 -0.16907,0.0466 -0.18865,0.10372 -0.0632,0.18547 -2.62863,0.65775 -3.21019,0.59081 -1.66687,-0.19183 -2.7043,-0.45191 -3.11256,-0.77999 -0.22516,-0.18098 -0.59346,-0.42519 -0.81809,-0.5424 -0.60933,-0.31803 -1.60734,-1.41182 -1.99972,-2.19128 -0.19023,-0.37835 -0.48736,-0.84323 -0.66013,-1.0332 -0.32703,-0.3593 -0.37624,-0.54477 -0.54319,-2.04205 -0.16272,-1.45971 0.2323,-3.58722 0.72257,-3.89017 0.0955,-0.059 0.20135,-0.24024 0.60643,-1.0369 0.2659,-0.52335 1.80657,-1.96109 2.19207,-2.04576 0.18018,-0.0397 0.75724,-0.30215 1.28217,-0.58341 l 0.95462,-0.51144 1.53458,-0.003 c 1.45442,-0.003 1.5621,0.0108 2.06375,0.27385"
       style="display:block;fill:none;fill-rule:evenodd;stroke:#1a1a1a;stroke-width:0.26458332" />
    <path
       id="path838"
       d="m 106.28466,185.5932 c -0.44929,-0.41153 -1.44838,-0.84554 -1.94644,-0.84554 -0.21018,0 -0.45307,-0.15876 -0.81475,-0.53253 -0.28342,-0.2929 -0.71433,-0.63095 -0.9576,-0.75124 -0.49855,-0.24653 -0.65595,-0.40774 -1.29284,-1.3242 -0.24693,-0.35531 -0.61346,-0.81052 -0.81452,-1.01158 -0.29831,-0.2983 -0.40326,-0.54042 -0.570417,-1.31594 -0.124687,-0.57847 -0.38545,-1.29579 -0.666358,-1.83305 l -0.461507,-0.88267 v -1.41561 -1.41562 l 0.524065,-1.12111 c 0.57739,-1.23519 0.762777,-1.81832 0.766307,-2.4104 0.003,-0.48151 0.0745,-0.59473 0.50341,-0.7955 0.20692,-0.0969 0.42536,-0.34284 0.56771,-0.63926 0.12725,-0.265 0.39059,-0.57865 0.58519,-0.69699 0.19461,-0.11835 0.50811,-0.42815 0.69668,-0.68846 0.21997,-0.30367 0.4924,-0.52434 0.76014,-0.61573 0.38623,-0.13184 0.70097,-0.40983 0.97785,-0.86367 0.16588,-0.27189 3.12486,-0.77261 4.90215,-0.82954 1.10368,-0.0353 1.70018,0.005 2.63462,0.17894 0.66437,0.12355 1.56109,0.28273 1.99272,0.35373 0.69628,0.11454 0.81006,0.16922 1.009,0.48492 0.12439,0.1974 0.45644,0.46682 0.74579,0.60512 0.32062,0.15325 0.6174,0.40437 0.77032,0.6518 0.13682,0.22137 0.44431,0.52595 0.68332,0.67683 0.24286,0.15331 0.52151,0.45897 0.63165,0.69288 0.10839,0.2302 0.38249,0.53854 0.60911,0.68519 0.38042,0.24617 0.42228,0.32795 0.54549,1.06572 0.34445,2.06241 1.13698,2.98525 2.56373,2.98525 0.98332,0 1.65829,-0.20789 2.20157,-0.6781 0.50978,-0.44121 1.07228,-0.66516 1.6754,-0.66703 0.45666,-0.001 1.02526,-0.36839 1.30474,-0.84206 0.19645,-0.33297 0.292,-0.39153 0.64026,-0.39247 0.60312,-0.002 1.53621,-0.47331 1.74855,-0.88393 0.1923,-0.37188 0.48296,-0.57242 0.82963,-0.57242 0.22934,0 0.73915,-0.52189 0.84953,-0.86966 0.0352,-0.11089 0.30996,-0.28594 0.62375,-0.39739 0.39383,-0.13987 0.61068,-0.29555 0.72817,-0.52274 0.092,-0.17795 0.38123,-0.46722 0.64268,-0.64281 0.26145,-0.1756 0.61927,-0.53352 0.79514,-0.79539 0.17841,-0.26565 0.48452,-0.54496 0.69246,-0.63184 0.45707,-0.19098 0.55708,-0.46016 0.53821,-1.44859 -0.0114,-0.59918 -0.0843,-0.90685 -0.33154,-1.40036 -0.28161,-0.56207 -0.37926,-0.65556 -0.87743,-0.84012 -0.30831,-0.11422 -0.66308,-0.23198 -0.78837,-0.26169 -0.1253,-0.0297 -0.35232,-0.23765 -0.50451,-0.4621 -0.15218,-0.22445 -0.53505,-0.69902 -0.85082,-1.05461 -0.31578,-0.35559 -0.63527,-0.81142 -0.70998,-1.01294 -0.31297,-0.84414 -0.46106,-1.09438 -0.75749,-1.27995 -0.17201,-0.10768 -0.33086,-0.20815 -0.35301,-0.22327 -0.0222,-0.0151 -0.10985,-0.5928 -0.19489,-1.28374 -0.16944,-1.37674 -0.40061,-1.98858 -0.8299,-2.19656 -1.11991,-0.54259 -2.74133,-1.07532 -3.74549,-1.23062 -0.25228,-0.039 -0.7805,-0.26359 -1.17382,-0.49905 -0.68104,-0.40771 -1.0496,-0.55969 -1.70899,-0.70473 -0.1617,-0.0356 -0.59376,-0.28535 -0.96014,-0.55506 -0.36638,-0.26971 -0.83948,-0.54906 -1.05134,-0.62077 -0.21186,-0.0717 -0.66268,-0.32857 -1.00182,-0.57081 -0.33913,-0.24223 -0.88236,-0.5951 -1.20716,-0.78415 -0.32481,-0.18904 -0.77886,-0.5115 -1.00901,-0.71655 -0.23015,-0.20506 -0.50501,-0.41958 -0.6108,-0.47672 -0.10579,-0.0571 -0.45895,-0.34603 -0.78478,-0.64201 -0.32584,-0.29597 -0.90972,-0.76294 -1.29751,-1.03772 -0.48533,-0.34388 -0.84255,-0.71703 -1.14619,-1.19729 -0.24262,-0.38373 -0.48933,-0.7391 -0.54827,-0.7897 -0.12074,-0.10367 -0.79268,-0.77549 -1.54309,-1.54279 -0.2763,-0.28253 -0.56317,-0.63567 -0.63749,-0.78478 -0.20409,-0.40946 -0.54589,-0.51748 -2.25869,-0.7138 -1.89256,-0.21694 -2.73229,-0.4342 -3.47546,-0.89921 -0.3083,-0.19292 -0.73713,-0.42113 -0.95295,-0.50714 -0.22236,-0.0886 -1.05019,-0.80129 -1.91052,-1.64476 -1.21557,-1.19174 -1.613568,-1.66222 -1.996992,-2.36064 -0.263374,-0.47974 -0.573582,-1.0236 -0.689353,-1.20859 -0.344303,-0.55014 -0.715479,-3.023 -0.69836,-4.65263 0.0199,-1.89401 0.348192,-3.68701 0.788749,-4.30777 0.178369,-0.25134 0.536419,-0.86747 0.795663,-1.36919 0.529653,-1.02506 1.697643,-2.45654 2.402623,-2.94466 0.25705,-0.17797 0.59348,-0.42889 0.74764,-0.55759 0.15415,-0.1287 0.33073,-0.27447 0.39239,-0.32392 0.17817,-0.1429 1.25917,-0.58691 1.4289,-0.58691 0.0848,0 0.50815,-0.17441 0.94085,-0.38758 0.96356,-0.47469 1.43885,-0.58391 2.98068,-0.68496 l 1.2023,-0.0788 0.65089,-0.74164 c 0.35799,-0.40791 0.74564,-0.89078 0.86145,-1.07304 0.1158,-0.18227 0.85843,-0.97823 1.65029,-1.76881 0.79186,-0.79058 1.43974,-1.4852 1.43974,-1.5436 0,-0.0584 0.14536,-0.18135 0.32301,-0.27322 0.17766,-0.0919 0.53681,-0.37245 0.7981,-0.6235 0.2613,-0.25106 0.63306,-0.5376 0.82614,-0.63677 0.19307,-0.0992 0.62851,-0.39491 0.96765,-0.65721 0.33914,-0.26229 0.86887,-0.60954 1.17717,-0.77165 0.30831,-0.16212 0.77187,-0.46462 1.03014,-0.67222 0.25827,-0.20761 0.71232,-0.46821 1.00901,-0.57913 0.49796,-0.18616 0.94636,-0.4419 1.57032,-0.89561 0.13536,-0.0984 0.61205,-0.27309 1.05931,-0.38814 0.44726,-0.11505 1.10024,-0.35963 1.45107,-0.54353 0.35082,-0.1839 1.08493,-0.4688 1.63136,-0.63311 1.64631,-0.49505 2.39338,-1.07849 2.39447,-1.87004 5.3e-4,-0.43524 0.4014,-1.44657 0.78092,-1.97049 0.17863,-0.24658 0.45767,-0.7106 0.62011,-1.03115 0.39604,-0.78154 0.96921,-1.40785 2.35513,-2.573479 0.36997,-0.31116 0.84925,-0.62427 1.06506,-0.6958 0.21581,-0.0715 0.58861,-0.26103 0.82843,-0.42114 1.16934,-0.78064 1.72402,-0.9085 4.27265,-0.9849 2.34235,-0.0702 4.46569,0.1443 5.21567,0.52691 0.24528,0.12513 0.44596,0.27001 0.44596,0.32195 0,0.052 0.34054,0.2613 0.75675,0.46523 0.41622,0.20393 0.97852,0.55139 1.24956,0.77214 0.91246,0.743149 2.04853,1.959469 2.30852,2.471579 0.14194,0.27959 0.43609,0.7725 0.65365,1.09535 0.50446,0.74857 0.80281,1.5512 0.96393,2.59321 0.0702,0.45422 0.18655,0.9335 0.25848,1.06506 0.0719,0.13156 0.15204,0.84853 0.17802,1.59327 0.0428,1.22633 0.0203,1.43431 -0.23838,2.20445 -0.15708,0.4677 -0.34686,1.17007 -0.42173,1.56082 -0.14467,0.75508 -0.42056,1.39262 -0.84248,1.94687 -0.14216,0.18674 -0.34929,0.54238 -0.4603,0.7903 -0.26356,0.58865 -1.77051,2.24582 -2.28703,2.51503 -0.22194,0.11568 -0.64905,0.39773 -0.94913,0.62678 -0.33692,0.25718 -1.01875,0.58451 -1.78265,0.8558 -0.68038,0.24163 -1.51453,0.54217 -1.85366,0.66785 -0.79995,0.29646 -2.69876,0.39778 -3.89351,0.20776 -0.47918,-0.0762 -1.22439,-0.2806 -1.65602,-0.45421 -0.43163,-0.17361 -1.06225,-0.40266 -1.40139,-0.509 -0.80132,-0.25127 -1.20728,-0.45899 -1.6491,-0.84378 -0.1979,-0.17235 -0.5278,-0.39308 -0.73311,-0.49051 -0.54281,-0.25758 -2.06029,-1.8559 -2.42041,-2.54936 -0.17012,-0.32759 -0.47005,-0.84788 -0.6665,-1.15618 -0.19645,-0.30831 -0.45894,-0.96416 -0.5833,-1.45745 -0.29798,-1.18195 -0.51839,-1.36378 -1.57117,-1.29608 -0.15415,0.01 -0.67849,0.2224 -1.16519,0.4722 -0.4867,0.2498 -1.193,0.55516 -1.56956,0.67858 -0.37656,0.12342 -0.92269,0.39891 -1.21362,0.6122 -0.29094,0.2133 -0.83163,0.50641 -1.20153,0.65138 -0.36991,0.14496 -0.91385,0.46431 -1.20876,0.70966 -0.29491,0.24535 -0.74649,0.55137 -1.00351,0.68005 -0.64041,0.32061 -1.82534,1.33975 -3.64356,3.13379 l -1.5323,1.51192 0.55791,0.7955 c 0.30685,0.43753 0.73362,0.90206 0.94838,1.0323 0.21476,0.13023 0.51395,0.40415 0.66487,0.60871 0.15091,0.20456 0.51458,0.60822 0.80814,0.89704 1.04736,1.03042 1.57352,1.82543 1.97733,2.98766 0.21012,0.60477 0.51667,1.47797 0.6812,1.94043 0.16453,0.46246 0.42392,1.32011 0.57642,1.9059 0.15249,0.58578 0.36913,1.15721 0.48142,1.26985 0.14138,0.14183 0.56248,0.25755 1.36961,0.37637 0.90865,0.13377 1.21487,0.22487 1.38968,0.41343 0.37294,0.40226 0.96746,0.70251 1.78768,0.90282 0.57232,0.13977 0.89507,0.29532 1.21787,0.58695 0.57093,0.51581 1.24848,0.81739 1.84328,0.82047 0.26206,10e-4 0.47647,0.049 0.47647,0.10597 0,0.22427 0.58481,0.78009 1.05168,0.99954 0.27089,0.12734 0.78733,0.48949 1.14765,0.8048 0.40451,0.35398 0.83975,0.62266 1.13776,0.70237 0.34216,0.0915 0.50044,0.20001 0.5438,0.37276 0.0746,0.29721 0.54171,0.74575 0.99574,0.95615 0.19816,0.0918 0.4192,0.3322 0.53855,0.58566 0.14503,0.30801 0.32785,0.48244 0.64479,0.61521 0.35057,0.14684 0.48095,0.2855 0.62828,0.66816 0.10224,0.26558 0.37845,0.64768 0.61378,0.84912 0.23534,0.20144 0.49284,0.51388 0.57223,0.69431 0.28615,0.65034 0.76392,1.27813 1.10817,1.45615 0.19308,0.0998 0.86182,0.22929 1.48609,0.28765 2.5723,0.24047 2.76082,0.2787 3.13795,0.63631 0.46108,0.43722 0.88311,0.64003 1.66874,0.80194 0.4894,0.10086 0.64464,0.18023 0.64464,0.32959 0,0.25577 0.404,0.63029 0.9063,0.84017 0.28239,0.11798 0.45799,0.29797 0.60175,0.61678 0.11458,0.2541 0.38223,0.56879 0.61447,0.72248 0.33866,0.22412 0.43576,0.37757 0.54881,0.86732 0.13203,0.57199 0.51707,1.20734 0.94626,1.56142 0.13346,0.1101 0.24425,0.43914 0.32086,0.95295 0.16846,1.12974 0.16663,4.74173 -0.003,6.05241 -0.14034,1.08394 -0.1583,1.13094 -0.5655,1.47948 -0.28607,0.24487 -0.49879,0.57453 -0.66517,1.03085 -0.16089,0.44126 -0.46416,0.91952 -0.88607,1.39739 -0.35281,0.39958 -0.73211,0.85714 -0.84289,1.0168 -0.11079,0.15965 -0.26847,0.29028 -0.35042,0.29028 -0.34514,0 -1.41594,0.57752 -1.64484,0.88714 -0.1363,0.18435 -0.32239,0.3638 -0.41353,0.39877 -0.17026,0.0653 -1.88984,0.343 -3.13708,0.50655 -0.48031,0.063 -0.87265,0.20141 -1.24128,0.43797 -0.29645,0.19023 -0.71196,0.4037 -0.92334,0.47437 -0.49157,0.16435 -0.98565,0.61428 -1.18418,1.07835 -0.0856,0.20005 -0.3508,0.48696 -0.58937,0.63756 -0.24022,0.15165 -0.48426,0.41866 -0.54692,0.59843 -0.14464,0.4149 -2.859,3.14818 -3.26797,3.29075 -0.16978,0.0592 -0.46727,0.33258 -0.66109,0.60755 -0.19381,0.27496 -0.44171,0.50012 -0.55089,0.50035 -0.3368,7.9e-4 -0.9446,0.44245 -1.07156,0.77879 -0.10255,0.2717 -0.23114,0.34879 -0.85703,0.5138 -0.85562,0.22559 -1.42606,0.53749 -1.51909,0.83062 -0.0774,0.24375 -0.42937,0.39403 -1.34383,0.57373 -0.54939,0.10796 -0.75675,0.2179 -1.15909,0.61455 -0.43694,0.43077 -0.57692,0.49741 -1.29285,0.61545 -1.37495,0.22671 -1.98945,0.43716 -2.36083,0.80854 -0.21993,0.21993 -0.60791,0.42573 -1.05606,0.56018 -0.70547,0.21164 -0.78764,0.27062 -1.31551,0.94412 -0.44341,0.56575 -0.94271,1.94109 -0.94599,2.60578 -7.9e-4,0.1684 -0.21156,0.49174 -0.56189,0.86216 -0.3083,0.32599 -0.56056,0.6714 -0.56056,0.76758 0,0.0962 -0.0464,0.17488 -0.1032,0.17488 -0.0568,0 -0.13505,0.14502 -0.17398,0.32226 -0.0816,0.37139 -0.43927,0.73522 -0.84393,0.85841 -0.41652,0.12679 -1.01533,0.53659 -1.45142,0.99328 -0.21249,0.22254 -0.49342,0.40462 -0.62429,0.40462 -0.49037,0 -1.4166,0.35798 -1.8022,0.69654 -0.52321,0.45938 -0.9519,0.52181 -3.63969,0.53 l -2.1923,0.007 z m 3.77012,-1.9011 c 0.13912,-0.0906 0.75744,-0.24924 1.37406,-0.35253 1.37861,-0.23093 1.60601,-0.32461 2.52251,-1.03922 1.36131,-1.06144 1.60566,-1.30784 1.87187,-1.88746 0.14626,-0.31846 0.46318,-0.78228 0.70427,-1.0307 0.27807,-0.28654 0.46861,-0.6077 0.52113,-0.87842 0.0455,-0.23472 0.0862,-1.58711 0.0904,-3.00532 0.009,-2.96676 -0.0875,-3.44817 -0.76121,-3.81101 -0.28097,-0.15131 -0.40147,-0.31687 -0.50073,-0.68802 -0.0719,-0.26882 -0.23268,-0.57731 -0.35728,-0.68554 -0.12461,-0.10823 -0.46541,-0.42889 -0.75734,-0.71257 -0.29999,-0.2915 -0.72578,-0.57521 -0.97923,-0.65245 -0.67027,-0.20427 -0.94236,-0.35949 -1.01138,-0.57696 -0.14378,-0.45303 -1.78088,-0.77731 -3.92413,-0.77731 -1.8232,0 -2.35642,0.13576 -2.91684,0.74266 -0.24915,0.26981 -0.54085,0.49056 -0.64825,0.49056 -0.65719,0 -2.33649,1.44787 -2.49002,2.14687 -0.046,0.20965 -0.26136,0.52361 -0.51568,0.75192 -0.60463,0.54277 -0.77235,1.16593 -0.84925,3.15524 -0.0979,2.53265 0.20542,4.15019 0.82963,4.42419 0.15278,0.0671 0.33517,0.34284 0.48194,0.72872 0.35087,0.9225 0.71877,1.41366 1.31579,1.75668 0.29427,0.16907 0.66116,0.44697 0.81532,0.61754 0.46118,0.51032 1.0836,0.74908 2.26275,0.86797 1.07965,0.10886 1.36839,0.19939 1.86516,0.58479 0.27539,0.21366 0.53107,0.17261 1.05656,-0.16963 z m 31.35068,-21.86442 c 0.17158,-0.0887 0.527,-0.34098 0.78982,-0.56056 0.26282,-0.21958 0.58659,-0.3997 0.71949,-0.40028 0.38148,-0.002 1.35763,-0.61816 1.7368,-1.0969 0.19021,-0.24015 0.52162,-0.5571 0.73649,-0.70432 0.43044,-0.29495 0.52791,-0.46548 0.9229,-1.61466 0.14788,-0.43027 0.3947,-0.97242 0.54847,-1.20479 0.57539,-0.86947 0.77896,-2.51538 0.44867,-3.62758 -0.0905,-0.30487 -0.36801,-0.94737 -0.61661,-1.42778 -0.24861,-0.48041 -0.45201,-0.94894 -0.45201,-1.04118 0,-0.33187 -0.33018,-0.79536 -0.77744,-1.09135 -0.25068,-0.16589 -0.45578,-0.36978 -0.45578,-0.45308 0,-0.2766 -0.45432,-0.73435 -0.94365,-0.95081 -0.3296,-0.1458 -0.50522,-0.30252 -0.55319,-0.49368 -0.0957,-0.38124 -0.60623,-0.60152 -1.86663,-0.80537 -0.72832,-0.11779 -1.16781,-0.25341 -1.44775,-0.44675 -0.22109,-0.15268 -0.6096,-0.3105 -0.86337,-0.35071 -0.45564,-0.0722 -0.85504,0.0594 -1.72478,0.56822 -0.15415,0.0902 -0.43163,0.16547 -0.61661,0.16729 -0.4961,0.005 -1.75376,0.32104 -2.05049,0.51547 -0.14179,0.0929 -0.30343,0.2889 -0.35918,0.43555 -0.0609,0.16008 -0.3021,0.35543 -0.60365,0.48882 -0.33983,0.15032 -0.56284,0.3432 -0.68953,0.59637 -0.103,0.2058 -0.43898,0.60121 -0.74664,0.87868 -0.46942,0.42337 -0.57603,0.59466 -0.66288,1.06506 -0.0569,0.30831 -0.25235,0.8005 -0.43428,1.09375 -0.54222,0.87404 -0.70595,1.48707 -0.71096,2.66199 -0.005,1.16574 0.25076,1.99748 0.68574,2.23028 0.24533,0.13129 0.47056,0.66748 0.47121,1.12177 5.3e-4,0.37761 0.34242,0.93871 0.99258,1.62903 1.47994,1.57137 1.52154,1.60627 2.12964,1.78662 0.34497,0.10232 0.7847,0.34473 1.03421,0.57015 0.23874,0.21569 0.54886,0.4167 0.68915,0.4467 0.14029,0.03 0.35598,0.0759 0.4793,0.10195 0.12332,0.0261 1.04654,0.0533 2.0516,0.0604 1.39105,0.01 1.90188,-0.0255 2.13936,-0.14832 z m -11.97582,-12.00635 c 0.41155,-0.21282 0.72477,-0.69742 0.95519,-1.47786 0.12953,-0.43869 0.28368,-0.67252 0.61789,-0.93722 0.24492,-0.19397 0.51646,-0.52298 0.60342,-0.73112 0.11226,-0.26867 0.2848,-0.42911 0.59487,-0.55318 0.27744,-0.11101 0.56521,-0.35699 0.78889,-0.67433 0.19367,-0.27477 0.43135,-0.49957 0.52817,-0.49957 0.36501,0 0.82213,-0.34631 1.11358,-0.84365 0.28844,-0.49219 0.29355,-0.52733 0.11607,-0.79821 -0.10211,-0.15584 -0.25722,-0.52432 -0.34468,-0.81884 -0.19445,-0.65477 -0.50592,-1.06699 -0.97869,-1.29525 -0.19689,-0.0951 -0.43365,-0.33523 -0.52614,-0.5337 -0.0925,-0.19848 -0.34475,-0.47024 -0.56056,-0.60392 -0.44092,-0.27311 -0.72087,-0.53735 -1.09969,-1.03796 -0.14237,-0.18814 -0.48291,-0.44118 -0.75676,-0.56232 -0.27384,-0.12113 -0.4979,-0.27321 -0.4979,-0.33796 0,-0.20266 -0.90186,-0.78189 -1.52153,-0.97723 -0.40499,-0.12766 -0.67291,-0.29678 -0.84479,-0.53328 -0.13844,-0.19048 -0.33112,-0.39588 -0.42817,-0.45643 -0.2552,-0.15921 -1.37019,-0.50293 -1.63777,-0.50486 -0.13352,-0.001 -0.31059,-0.14133 -0.42709,-0.33856 -0.275,-0.46553 -0.70153,-0.65641 -1.782,-0.7975 -0.89833,-0.11731 -0.93908,-0.13578 -1.35532,-0.61439 -0.23603,-0.27139 -0.49921,-0.49344 -0.58484,-0.49344 -0.15618,0 -1.03265,0.69059 -1.69366,1.33448 -0.19432,0.18928 -0.43191,0.57481 -0.52797,0.85674 -0.0961,0.28192 -0.39112,0.80601 -0.6557,1.16462 -0.26457,0.35862 -0.56154,0.80023 -0.65992,0.98136 -0.19525,0.35945 -2.36009,2.36094 -3.04106,2.81158 -0.47387,0.31359 -0.53199,0.56627 -0.19946,0.8672 0.12332,0.11161 0.22422,0.24331 0.22422,0.29268 0,0.34883 1.72672,2.18505 2.53941,2.70045 0.26364,0.16719 0.54427,0.41112 0.62362,0.54206 0.0794,0.13094 0.47249,0.43097 0.87365,0.66672 0.40117,0.23576 0.82999,0.54012 0.95295,0.67636 0.12296,0.13625 0.60659,0.44048 1.07474,0.67607 0.46816,0.2356 1.01205,0.56371 1.20866,0.72914 0.1966,0.16543 0.82096,0.47311 1.38745,0.68372 0.56649,0.21061 1.1325,0.47894 1.2578,0.59628 0.29612,0.2773 0.64081,0.40631 2.13372,0.79861 1.317,0.34607 1.92298,0.3563 2.5294,0.0427 z m -17.92693,-12.36958 c 0.34893,-0.13633 0.69614,-0.32224 0.77158,-0.41314 0.0754,-0.0909 0.43811,-0.32567 0.80595,-0.52172 0.36783,-0.19605 0.75215,-0.4823 0.85403,-0.63609 0.10188,-0.1538 0.4084,-0.49475 0.68114,-0.75767 0.49611,-0.47824 0.8585,-1.24077 1.48467,-3.12397 0.32909,-0.98975 0.2552,-2.47665 -0.16156,-3.25124 -0.16589,-0.30831 -0.46353,-0.96416 -0.66144,-1.45745 -0.21465,-0.53502 -0.49006,-1.00998 -0.68262,-1.17717 -0.17753,-0.15415 -0.49723,-0.51607 -0.71044,-0.80426 -0.32594,-0.44056 -0.51654,-0.57209 -1.1972,-0.82616 -0.44524,-0.1662 -1.08701,-0.45567 -1.42615,-0.64326 -0.59467,-0.32894 -0.66856,-0.34143 -2.07645,-0.35101 -1.44007,-0.01 -1.46913,-0.005 -2.14582,0.35443 -0.37728,0.2004 -0.74828,0.36436 -0.82443,0.36436 -0.38946,0 -1.42031,0.59634 -1.67574,0.9694 -0.15181,0.22173 -0.45934,0.51887 -0.68341,0.66031 -0.22407,0.14145 -0.48991,0.43108 -0.59078,0.64363 -0.10086,0.21255 -0.26392,0.4533 -0.36236,0.53499 -0.71826,0.5961 -1.17208,2.82995 -0.94544,4.65378 0.13808,1.11118 0.36782,1.71985 0.94691,2.50873 0.21447,0.29217 0.48803,0.76003 0.6079,1.03969 0.17764,0.4144 0.34946,0.58723 0.92875,0.9342 0.39093,0.23416 1.00197,0.62702 1.35786,0.87303 0.94012,0.64988 1.41967,0.75026 3.38894,0.70938 1.41462,-0.0294 1.78243,-0.0743 2.31611,-0.28279 z m 29.13119,-21.51883 c 0.33914,-0.18044 0.95763,-0.44523 1.37442,-0.58842 0.85612,-0.29412 1.81119,-1.02339 2.72665,-2.08202 0.8658,-1.00121 0.93554,-1.15023 1.23046,-2.62934 0.32134,-1.61161 0.32639,-1.74698 0.10759,-2.88284 -0.39856,-2.06911 -0.61723,-2.65267 -1.11657,-2.97985 -0.15783,-0.10341 -0.41972,-0.38864 -0.58199,-0.63385 -0.16227,-0.24521 -0.47749,-0.55759 -0.70048,-0.69418 -0.223,-0.13659 -0.66888,-0.4617 -0.99085,-0.72247 -0.70767,-0.57315 -1.05701,-0.68089 -2.71547,-0.83751 -0.94004,-0.0888 -1.50927,-0.0871 -2.13012,0.006 -1.38956,0.20865 -1.75432,0.34225 -2.37055,0.86826 -0.32066,0.2737 -0.76659,0.5913 -0.99096,0.70577 -0.22437,0.11446 -0.48115,0.34489 -0.57062,0.51207 -0.0895,0.16717 -0.37622,0.49192 -0.63722,0.72167 -0.54661,0.48115 -0.63657,0.68133 -0.95884,2.13382 -0.36948,1.66523 -0.37389,2.45389 -0.0221,3.9372 0.35033,1.47696 0.38486,1.55644 0.96844,2.22894 1.26896,1.4623 2.00655,2.03239 3.11916,2.41081 0.45031,0.15316 1.00001,0.38557 1.22157,0.51646 0.87301,0.51576 2.07872,0.5195 3.03745,0.009 z"
       style="display:block;fill:#0066ff;fill-opacity:1;stroke:#0000ff;stroke-width:0.08474576;stroke-miterlimit:4;stroke-dasharray:none;stroke-opacity:1" />
  </g>
</svg>
